<svg xmlns="http://www.w3.org/2000/svg" xmlns:xlink="http://www.w3.org/1999/xlink" width="40" zoomAndPan="magnify" viewBox="0 0 30 30.000001" height="40" preserveAspectRatio="xMidYMid meet" version="1.0"><defs><clipPath id="5ffb308bb1"><path d="M 0.484375 0 L 29.515625 0 L 29.515625 29.03125 L 0.484375 29.03125 Z M 0.484375 0 " clip-rule="nonzero"/></clipPath><clipPath id="c5dc40bbac"><path d="M 3.386719 2.902344 L 26.613281 2.902344 L 26.613281 26.128906 L 3.386719 26.128906 Z M 3.386719 2.902344 " clip-rule="nonzero"/></clipPath></defs><g clip-path="url(#5ffb308bb1)"><path fill="#ffffff" d="M 0.484375 0 L 29.515625 0 L 29.515625 137.902344 L 0.484375 137.902344 Z M 0.484375 0 " fill-opacity="1" fill-rule="nonzero"/><path fill="#ffffff" d="M 0.484375 0 L 29.515625 0 L 29.515625 29.03125 L 0.484375 29.03125 Z M 0.484375 0 " fill-opacity="1" fill-rule="nonzero"/><path fill="#202020" d="M 0.484375 0 L 29.515625 0 L 29.515625 29.03125 L 0.484375 29.03125 Z M 0.484375 0 " fill-opacity="1" fill-rule="nonzero"/></g><path fill="#00ead0" d="M 15 11.941406 C 13.582031 11.941406 12.425781 13.097656 12.425781 14.515625 C 12.425781 15.933594 13.582031 17.089844 15 17.089844 C 16.417969 17.089844 17.574219 15.933594 17.574219 14.515625 C 17.574219 13.097656 16.417969 11.941406 15 11.941406 Z M 15 11.941406 " fill-opacity="1" fill-rule="nonzero"/><path fill="#00ead0" d="M 18.457031 8.203125 L 11.542969 8.203125 C 9.972656 8.203125 8.6875 9.480469 8.6875 11.058594 L 8.6875 17.976562 C 8.6875 19.542969 9.960938 20.832031 11.542969 20.832031 L 18.457031 20.832031 C 20.027344 20.832031 21.3125 19.554688 21.3125 17.976562 L 21.3125 11.058594 C 21.304688 9.480469 20.027344 8.203125 18.457031 8.203125 Z M 15 18.386719 C 12.859375 18.386719 11.117188 16.648438 11.117188 14.507812 C 11.117188 12.363281 12.859375 10.625 15 10.625 C 17.140625 10.625 18.882812 12.363281 18.882812 14.507812 C 18.871094 16.648438 17.132812 18.386719 15 18.386719 Z M 19.152344 11.277344 C 18.640625 11.277344 18.21875 10.855469 18.21875 10.34375 C 18.21875 9.832031 18.640625 9.410156 19.152344 9.410156 C 19.664062 9.410156 20.085938 9.832031 20.085938 10.34375 C 20.085938 10.867188 19.675781 11.277344 19.152344 11.277344 Z M 19.152344 11.277344 " fill-opacity="1" fill-rule="nonzero"/><g clip-path="url(#c5dc40bbac)"><path fill="#00ead0" d="M 15 2.902344 C 8.585938 2.902344 3.386719 8.101562 3.386719 14.515625 C 3.386719 20.929688 8.585938 26.128906 15 26.128906 C 21.414062 26.128906 26.613281 20.929688 26.613281 14.515625 C 26.601562 8.101562 21.40625 2.902344 15 2.902344 Z M 22.609375 17.976562 C 22.609375 20.265625 20.742188 22.136719 18.449219 22.136719 L 11.542969 22.136719 C 9.25 22.136719 7.378906 20.265625 7.378906 17.976562 L 7.378906 11.058594 C 7.378906 8.765625 9.25 6.894531 11.542969 6.894531 L 18.457031 6.894531 C 20.75 6.894531 22.621094 8.765625 22.621094 11.058594 L 22.621094 17.976562 Z M 22.609375 17.976562 " fill-opacity="1" fill-rule="nonzero"/></g></svg>