<svg xmlns="http://www.w3.org/2000/svg" xmlns:xlink="http://www.w3.org/1999/xlink" width="40" zoomAndPan="magnify" viewBox="0 0 30 30.000001" height="40" preserveAspectRatio="xMidYMid meet" version="1.0"><defs><clipPath id="5fb19c4aa5"><path d="M 0.484375 0 L 29.515625 0 L 29.515625 29.03125 L 0.484375 29.03125 Z M 0.484375 0 " clip-rule="nonzero"/></clipPath><clipPath id="9e2ed1b243"><path d="M 3.386719 2.902344 L 26.613281 2.902344 L 26.613281 26.128906 L 3.386719 26.128906 Z M 3.386719 2.902344 " clip-rule="nonzero"/></clipPath></defs><g clip-path="url(#5fb19c4aa5)"><path fill="#ffffff" d="M 0.484375 0 L 29.515625 0 L 29.515625 29.03125 L 0.484375 29.03125 Z M 0.484375 0 " fill-opacity="1" fill-rule="nonzero"/><path fill="#202020" d="M 0.484375 0 L 29.515625 0 L 29.515625 29.03125 L 0.484375 29.03125 Z M 0.484375 0 " fill-opacity="1" fill-rule="nonzero"/></g><g clip-path="url(#9e2ed1b243)"><path fill="#2af6df" d="M 15.003906 2.902344 C 14.242188 2.902344 13.488281 2.976562 12.738281 3.128906 C 11.992188 3.277344 11.265625 3.496094 10.5625 3.789062 C 9.855469 4.082031 9.1875 4.4375 8.554688 4.863281 C 7.917969 5.285156 7.332031 5.769531 6.792969 6.308594 C 6.253906 6.847656 5.773438 7.433594 5.351562 8.066406 C 4.925781 8.703125 4.570312 9.371094 4.277344 10.078125 C 3.984375 10.78125 3.765625 11.507812 3.617188 12.253906 C 3.46875 13.003906 3.394531 13.757812 3.394531 14.519531 C 3.394531 15.285156 3.46875 16.039062 3.617188 16.785156 C 3.769531 17.535156 3.988281 18.261719 4.28125 18.964844 C 4.574219 19.667969 4.929688 20.339844 5.355469 20.972656 C 5.777344 21.605469 6.261719 22.191406 6.800781 22.730469 C 7.339844 23.269531 7.925781 23.753906 8.558594 24.175781 C 9.195312 24.601562 9.863281 24.957031 10.566406 25.25 C 11.273438 25.539062 12 25.761719 12.746094 25.910156 C 13.496094 26.058594 14.25 26.132812 15.011719 26.132812 C 15.773438 26.132812 16.53125 26.058594 17.277344 25.90625 C 18.027344 25.757812 18.753906 25.539062 19.457031 25.246094 C 20.160156 24.953125 20.832031 24.597656 21.464844 24.171875 C 22.097656 23.75 22.683594 23.265625 23.222656 22.726562 C 23.761719 22.1875 24.246094 21.601562 24.667969 20.96875 C 25.089844 20.332031 25.449219 19.664062 25.742188 18.960938 C 26.03125 18.253906 26.253906 17.527344 26.402344 16.78125 C 26.550781 16.03125 26.625 15.277344 26.625 14.515625 C 26.621094 13.753906 26.546875 12.996094 26.394531 12.25 C 26.246094 11.503906 26.023438 10.777344 25.734375 10.074219 C 25.441406 9.371094 25.082031 8.699219 24.65625 8.066406 C 24.234375 7.433594 23.753906 6.847656 23.214844 6.308594 C 22.675781 5.769531 22.085938 5.289062 21.453125 4.863281 C 20.820312 4.441406 20.152344 4.082031 19.445312 3.792969 C 18.742188 3.5 18.015625 3.277344 17.269531 3.128906 C 16.523438 2.980469 15.769531 2.90625 15.003906 2.902344 Z M 18.210938 24.3125 C 17.707031 24.417969 17.523438 24.105469 17.523438 23.839844 C 17.523438 23.5 17.539062 22.417969 17.539062 21.066406 C 17.539062 20.132812 17.21875 19.519531 16.855469 19.210938 C 19.09375 18.957031 21.449219 18.105469 21.449219 14.238281 C 21.464844 13.195312 21.121094 12.296875 20.414062 11.535156 C 20.515625 11.28125 20.871094 10.25 20.316406 8.859375 C 20.316406 8.859375 19.472656 8.585938 17.546875 9.890625 C 15.867188 9.4375 14.191406 9.4375 12.515625 9.890625 C 10.589844 8.601562 9.742188 8.859375 9.742188 8.859375 C 9.195312 10.246094 9.542969 11.277344 9.648438 11.535156 C 8.945312 12.296875 8.601562 13.199219 8.617188 14.238281 C 8.617188 18.089844 10.957031 18.957031 13.195312 19.210938 C 12.90625 19.460938 12.640625 19.898438 12.550781 20.558594 C 11.972656 20.816406 10.527344 21.246094 9.625 19.726562 C 9.433594 19.421875 8.867188 18.683594 8.078125 18.691406 C 7.230469 18.707031 7.734375 19.171875 8.085938 19.359375 C 8.511719 19.605469 9.003906 20.492188 9.121094 20.78125 C 9.320312 21.351562 9.972656 22.433594 12.5 21.964844 C 12.5 22.8125 12.515625 23.605469 12.515625 23.835938 C 12.515625 24.105469 12.328125 24.398438 11.824219 24.3125 C 11.453125 24.1875 11.085938 24.039062 10.730469 23.871094 C 10.375 23.703125 10.027344 23.515625 9.695312 23.304688 C 9.359375 23.097656 9.039062 22.871094 8.730469 22.625 C 8.421875 22.378906 8.132812 22.113281 7.855469 21.832031 C 7.578125 21.550781 7.320312 21.257812 7.078125 20.945312 C 6.835938 20.632812 6.613281 20.308594 6.410156 19.972656 C 6.207031 19.636719 6.023438 19.289062 5.859375 18.929688 C 5.699219 18.570312 5.558594 18.203125 5.4375 17.828125 C 5.316406 17.453125 5.222656 17.070312 5.144531 16.683594 C 5.070312 16.296875 5.019531 15.90625 4.992188 15.511719 C 4.960938 15.121094 4.957031 14.726562 4.972656 14.332031 C 4.992188 13.941406 5.03125 13.546875 5.09375 13.160156 C 5.160156 12.769531 5.246094 12.386719 5.351562 12.007812 C 5.460938 11.628906 5.59375 11.257812 5.742188 10.894531 C 5.894531 10.53125 6.070312 10.179688 6.261719 9.835938 C 6.457031 9.492188 6.667969 9.160156 6.902344 8.84375 C 7.136719 8.523438 7.386719 8.222656 7.652344 7.933594 C 7.921875 7.644531 8.207031 7.371094 8.507812 7.117188 C 8.804688 6.863281 9.121094 6.625 9.449219 6.40625 C 9.777344 6.1875 10.117188 5.992188 10.46875 5.8125 C 10.820312 5.632812 11.179688 5.476562 11.550781 5.339844 C 11.917969 5.203125 12.296875 5.089844 12.679688 5 C 13.0625 4.90625 13.449219 4.839844 13.839844 4.792969 C 14.230469 4.746094 14.625 4.722656 15.019531 4.722656 C 15.414062 4.722656 15.804688 4.746094 16.195312 4.792969 C 16.589844 4.839844 16.976562 4.90625 17.359375 5 C 17.742188 5.089844 18.117188 5.203125 18.488281 5.339844 C 18.859375 5.476562 19.21875 5.632812 19.570312 5.8125 C 19.921875 5.992188 20.261719 6.1875 20.589844 6.40625 C 20.917969 6.625 21.230469 6.863281 21.53125 7.117188 C 21.832031 7.371094 22.117188 7.644531 22.382812 7.933594 C 22.652344 8.222656 22.902344 8.523438 23.136719 8.84375 C 23.367188 9.160156 23.582031 9.492188 23.773438 9.835938 C 23.96875 10.179688 24.140625 10.53125 24.292969 10.894531 C 24.445312 11.257812 24.574219 11.628906 24.683594 12.007812 C 24.792969 12.386719 24.878906 12.769531 24.941406 13.160156 C 25.003906 13.546875 25.046875 13.941406 25.0625 14.332031 C 25.082031 14.726562 25.074219 15.121094 25.046875 15.511719 C 25.019531 15.90625 24.964844 16.296875 24.890625 16.683594 C 24.816406 17.070312 24.71875 17.453125 24.601562 17.828125 C 24.480469 18.203125 24.339844 18.570312 24.175781 18.929688 C 24.015625 19.289062 23.832031 19.636719 23.628906 19.972656 C 23.421875 20.308594 23.199219 20.632812 22.960938 20.945312 C 22.71875 21.257812 22.457031 21.550781 22.183594 21.832031 C 21.90625 22.113281 21.613281 22.378906 21.304688 22.625 C 21 22.871094 20.679688 23.097656 20.34375 23.304688 C 20.007812 23.515625 19.664062 23.703125 19.308594 23.871094 C 18.953125 24.039062 18.585938 24.1875 18.210938 24.3125 Z M 18.210938 24.3125 " fill-opacity="1" fill-rule="evenodd"/></g></svg>