<svg xmlns="http://www.w3.org/2000/svg" xmlns:xlink="http://www.w3.org/1999/xlink" width="40" zoomAndPan="magnify" viewBox="0 0 30 30.000001" height="40" preserveAspectRatio="xMidYMid meet" version="1.0"><defs><clipPath id="bd3e891c15"><path d="M 0.484375 0 L 29.515625 0 L 29.515625 29.03125 L 0.484375 29.03125 Z M 0.484375 0 " clip-rule="nonzero"/></clipPath><clipPath id="d31731c2ee"><path d="M 3.386719 2.945312 L 26.613281 2.945312 L 26.613281 26.171875 L 3.386719 26.171875 Z M 3.386719 2.945312 " clip-rule="nonzero"/></clipPath></defs><g clip-path="url(#bd3e891c15)"><path fill="#ffffff" d="M 0.484375 0 L 29.515625 0 L 29.515625 29.03125 L 0.484375 29.03125 Z M 0.484375 0 " fill-opacity="1" fill-rule="nonzero"/><path fill="#202020" d="M 0.484375 0 L 29.515625 0 L 29.515625 29.03125 L 0.484375 29.03125 Z M 0.484375 0 " fill-opacity="1" fill-rule="nonzero"/></g><g clip-path="url(#d31731c2ee)"><path fill="#2af6df" d="M 15.003906 2.949219 C 8.585938 2.949219 3.386719 8.171875 3.386719 14.613281 C 3.386719 20.398438 7.589844 25.207031 13.09375 26.117188 L 13.09375 18.207031 L 10.136719 18.207031 L 10.136719 14.746094 L 13.09375 14.746094 L 13.09375 12.230469 C 13.09375 9.503906 15.296875 7.65625 18.011719 7.65625 C 19.21875 7.65625 19.972656 7.839844 19.972656 7.839844 L 19.972656 10.746094 L 18.011719 10.746094 C 17.199219 10.746094 16.535156 11.414062 16.535156 12.230469 L 16.535156 14.746094 L 19.703125 14.746094 L 19.261719 18.207031 L 16.535156 18.207031 L 16.535156 26.167969 C 22.21875 25.410156 26.601562 20.519531 26.601562 14.613281 C 26.613281 8.171875 21.414062 2.949219 15.003906 2.949219 Z M 15.003906 2.949219 " fill-opacity="1" fill-rule="nonzero"/></g></svg>