<svg xmlns="http://www.w3.org/2000/svg" xmlns:xlink="http://www.w3.org/1999/xlink" width="40" zoomAndPan="magnify" viewBox="0 0 30 30.000001" height="40" preserveAspectRatio="xMidYMid meet" version="1.0"><defs><clipPath id="85bdd70606"><path d="M 0.484375 0 L 29.515625 0 L 29.515625 29.03125 L 0.484375 29.03125 Z M 0.484375 0 " clip-rule="nonzero"/></clipPath><clipPath id="6f82fc9111"><path d="M 3.386719 2.902344 L 26.613281 2.902344 L 26.613281 26.128906 L 3.386719 26.128906 Z M 3.386719 2.902344 " clip-rule="nonzero"/></clipPath></defs><g clip-path="url(#85bdd70606)"><path fill="#ffffff" d="M 0.484375 0 L 29.515625 0 L 29.515625 36.289062 L 0.484375 36.289062 Z M 0.484375 0 " fill-opacity="1" fill-rule="nonzero"/><path fill="#ffffff" d="M 0.484375 0 L 29.515625 0 L 29.515625 29.03125 L 0.484375 29.03125 Z M 0.484375 0 " fill-opacity="1" fill-rule="nonzero"/><path fill="#202020" d="M 0.484375 0 L 29.515625 0 L 29.515625 29.03125 L 0.484375 29.03125 Z M 0.484375 0 " fill-opacity="1" fill-rule="nonzero"/></g><g clip-path="url(#6f82fc9111)"><path fill="#00ead0" d="M 15 2.902344 C 8.585938 2.902344 3.386719 8.101562 3.386719 14.515625 C 3.386719 20.929688 8.585938 26.128906 15 26.128906 C 21.414062 26.128906 26.613281 20.929688 26.613281 14.515625 C 26.613281 8.101562 21.414062 2.902344 15 2.902344 Z M 11.496094 20.207031 L 9.054688 20.207031 L 9.054688 12.472656 L 11.496094 12.472656 Z M 10.210938 11.507812 L 10.195312 11.507812 C 9.3125 11.507812 8.738281 10.917969 8.738281 10.164062 C 8.738281 9.414062 9.328125 8.824219 10.230469 8.824219 C 11.128906 8.824219 11.683594 9.402344 11.703125 10.164062 C 11.703125 10.914062 11.128906 11.507812 10.214844 11.507812 Z M 21.261719 20.207031 L 18.492188 20.207031 L 18.492188 16.207031 C 18.492188 15.160156 18.058594 14.441406 17.109375 14.441406 C 16.378906 14.441406 15.972656 14.925781 15.785156 15.390625 C 15.714844 15.558594 15.726562 15.789062 15.726562 16.023438 L 15.726562 20.207031 L 12.984375 20.207031 C 12.984375 20.207031 13.019531 13.117188 12.984375 12.472656 L 15.726562 12.472656 L 15.726562 13.6875 C 15.886719 13.15625 16.765625 12.398438 18.164062 12.398438 C 19.898438 12.398438 21.261719 13.511719 21.261719 15.90625 Z M 21.261719 20.207031 " fill-opacity="1" fill-rule="nonzero"/></g></svg>